<?xml version="1.0" encoding="UTF-8" standalone="no"?>
<svg
   xmlns:dc="http://purl.org/dc/elements/1.1/"
   xmlns:cc="http://creativecommons.org/ns#"
   xmlns:rdf="http://www.w3.org/1999/02/22-rdf-syntax-ns#"
   xmlns:svg="http://www.w3.org/2000/svg"
   xmlns="http://www.w3.org/2000/svg"
   xmlns:sodipodi="http://sodipodi.sourceforge.net/DTD/sodipodi-0.dtd"
   xmlns:inkscape="http://www.inkscape.org/namespaces/inkscape"
   id="svg"
   version="1.1"
   width="400"
   height="394.7791164658634"
   viewBox="0, 0, 400,394.7791164658634"
   sodipodi:docname="pustaka-koding-light.svg"
   inkscape:version="0.92.4 (5da689c313, 2019-01-14)">
  <metadata
     id="metadata13">
    <rdf:RDF>
      <cc:Work
         rdf:about="">
        <dc:format>image/svg+xml</dc:format>
        <dc:type
           rdf:resource="http://purl.org/dc/dcmitype/StillImage" />
      </cc:Work>
    </rdf:RDF>
  </metadata>
  <defs
     id="defs11" />
  <sodipodi:namedview
     pagecolor="#ffffff"
     bordercolor="#666666"
     borderopacity="1"
     objecttolerance="10"
     gridtolerance="10"
     guidetolerance="10"
     inkscape:pageopacity="0"
     inkscape:pageshadow="2"
     inkscape:window-width="1920"
     inkscape:window-height="1027"
     id="namedview9"
     showgrid="false"
     inkscape:zoom="0.59780265"
     inkscape:cx="-8.2627104"
     inkscape:cy="197.38956"
     inkscape:window-x="1358"
     inkscape:window-y="-8"
     inkscape:window-maximized="1"
     inkscape:current-layer="svg" />
  <g
     id="svgg">
    <path
       id="path0"
       d="m 189.339,4.011 c -1.303,0.154 -4.147,0.393 -6.318,0.531 -2.172,0.138 -5.904,0.508 -8.292,0.824 -2.389,0.315 -4.655,0.497 -5.035,0.405 -0.38,-0.093 -0.691,-0.028 -0.691,0.143 0,0.172 -0.975,0.435 -2.166,0.583 -1.191,0.149 -2.268,0.437 -2.393,0.64 -0.125,0.202 -0.642,0.264 -1.148,0.137 -0.506,-0.126 -1.034,-0.046 -1.173,0.179 -0.139,0.226 -0.516,0.309 -0.838,0.185 -0.321,-0.123 -0.849,-0.005 -1.172,0.264 -0.444,0.368 -0.72,0.376 -1.133,0.034 -0.422,-0.351 -0.601,-0.312 -0.787,0.174 -0.132,0.345 -0.427,0.512 -0.656,0.371 -0.228,-0.141 -0.673,-0.042 -0.99,0.22 -0.451,0.375 -0.707,0.368 -1.189,-0.032 -0.508,-0.422 -0.594,-0.413 -0.494,0.05 0.072,0.334 -0.198,0.566 -0.669,0.575 -0.435,0.008 -1.02,0.157 -1.301,0.33 -0.291,0.181 -0.789,0.09 -1.161,-0.212 -0.471,-0.382 -0.568,-0.39 -0.352,-0.031 0.324,0.539 -0.241,0.865 -1.787,1.03 -0.528,0.056 -1.13,0.206 -1.338,0.332 -0.768,0.467 -4.632,1.478 -4.934,1.291 -0.172,-0.106 -0.372,-0.027 -0.445,0.177 -0.073,0.203 -0.666,0.426 -1.317,0.496 -0.652,0.069 -1.274,0.231 -1.382,0.358 -0.109,0.128 -2.33,0.994 -4.936,1.925 -2.606,0.931 -6.039,2.207 -7.628,2.835 -1.59,0.628 -3.056,1.04 -3.258,0.914 -0.202,-0.125 -0.368,-0.067 -0.368,0.128 0,0.688 -2.065,1.367 -2.426,0.798 -0.252,-0.398 -0.327,-0.376 -0.332,0.098 -0.009,0.893 -3.574,2.565 -4.009,1.88 -0.257,-0.406 -0.33,-0.387 -0.334,0.087 -0.008,0.723 -5.773,3.684 -6.409,3.292 -0.238,-0.147 -0.323,-0.09 -0.189,0.126 0.134,0.217 -1.43,1.311 -3.476,2.431 -3.898,2.134 -4.374,2.326 -3.913,1.58 0.176,-0.285 0.109,-0.348 -0.18,-0.17 -0.254,0.157 -0.371,0.434 -0.258,0.616 0.112,0.181 -0.641,0.82 -1.672,1.419 -1.032,0.6 -3.14,1.938 -4.684,2.975 -1.952,1.31 -2.935,1.759 -3.221,1.472 -0.287,-0.286 -0.394,-0.249 -0.351,0.124 0.034,0.294 -0.063,0.535 -0.217,0.535 -0.153,0 -0.509,0.279 -0.79,0.62 -0.28,0.34 -2.82,2.287 -5.643,4.325 -6.561,4.737 -10.231,7.595 -12.34,9.609 -0.923,0.882 -1.678,1.488 -1.678,1.347 0,-0.141 -0.921,0.717 -2.046,1.907 -1.125,1.189 -2.261,2.08 -2.525,1.979 -0.495,-0.19 -2.296,1.448 -1.96,1.784 0.104,0.104 -1.227,1.597 -2.958,3.318 -1.731,1.72 -3.147,2.977 -3.147,2.793 0,-0.184 -0.267,-0.114 -0.592,0.156 -0.326,0.271 -0.593,0.79 -0.593,1.153 0,0.751 -2.745,3.586 -3.471,3.586 -0.263,0 -0.477,0.291 -0.477,0.647 0,0.356 -0.946,1.733 -2.102,3.06 -15.677,18.001 -29.139,41.882 -36.642,65 -0.952,2.932 -1.819,5.419 -1.928,5.528 -0.108,0.108 -0.255,0.728 -0.325,1.377 -0.071,0.649 -0.249,1.271 -0.395,1.382 -0.147,0.111 -0.324,0.733 -0.395,1.382 -0.071,0.649 -0.315,1.404 -0.542,1.678 -0.227,0.274 -0.281,0.499 -0.119,0.499 0.161,0 0.091,0.244 -0.156,0.542 -0.248,0.298 -0.346,0.813 -0.219,1.145 0.127,0.331 0.038,0.721 -0.197,0.867 -0.236,0.145 -0.321,0.437 -0.191,0.649 0.131,0.212 0.03,0.636 -0.225,0.943 -0.254,0.306 -0.343,0.751 -0.197,0.987 0.146,0.236 0.057,0.68 -0.197,0.987 -0.255,0.307 -0.356,0.731 -0.225,0.943 0.13,0.211 0.068,0.489 -0.139,0.617 -0.207,0.128 -0.388,0.54 -0.402,0.916 -0.047,1.193 -0.276,2.638 -0.516,3.25 -0.127,0.325 -0.246,0.858 -0.264,1.184 -0.07,1.263 -1.412,8.1 -1.609,8.195 -0.114,0.054 -0.142,0.921 -0.062,1.926 0.08,1.004 -0.008,1.734 -0.195,1.621 -0.187,-0.113 -0.393,1.508 -0.459,3.602 -0.066,2.094 -0.244,3.851 -0.395,3.905 -0.152,0.054 -0.215,1.165 -0.142,2.468 0.074,1.304 -0.015,2.37 -0.197,2.37 -0.182,0 -0.331,5.153 -0.331,11.451 0,6.298 0.149,11.451 0.331,11.451 0.182,0 0.271,1.067 0.197,2.37 -0.073,1.304 0,2.37 0.163,2.369 0.163,0 0.296,0.673 0.296,1.497 0,0.823 0.278,3.614 0.617,6.202 0.339,2.588 0.534,5.024 0.432,5.414 -0.102,0.389 -0.045,0.621 0.127,0.515 0.173,-0.107 0.44,0.826 0.595,2.072 0.155,1.246 0.396,2.444 0.536,2.661 0.228,0.354 0.365,1.192 0.483,2.962 0.022,0.325 0.139,0.858 0.259,1.184 0.242,0.653 0.485,1.848 0.562,2.764 0.028,0.326 0.219,0.807 0.425,1.069 0.207,0.262 0.268,0.649 0.138,0.861 -0.131,0.212 -0.051,0.501 0.179,0.643 0.23,0.142 0.309,0.598 0.177,1.014 -0.144,0.455 -0.053,0.757 0.228,0.757 0.273,0 0.381,0.328 0.261,0.789 -0.114,0.434 -0.033,0.896 0.178,1.027 0.212,0.131 0.294,0.475 0.183,0.765 -0.112,0.29 -0.038,0.583 0.163,0.651 0.202,0.068 0.434,0.657 0.518,1.309 0.083,0.651 0.352,1.685 0.599,2.296 0.246,0.611 0.447,1.242 0.447,1.402 0,2.204 7.178,21.027 11.295,29.617 1.6,3.338 2.795,6.253 2.656,6.478 -0.139,0.225 -0.062,0.29 0.172,0.146 0.246,-0.152 0.907,0.612 1.571,1.814 2.538,4.597 3.493,6.207 6.152,10.369 5.548,8.685 12.225,17.759 17.361,23.594 1.482,1.684 2.601,3.213 2.487,3.398 -0.115,0.185 0.231,0.749 0.767,1.253 0.536,0.503 0.975,0.757 0.975,0.564 0,-0.193 0.977,0.614 2.172,1.793 1.194,1.18 2.171,2.435 2.171,2.788 0,0.723 1.2,1.951 1.906,1.951 0.65,0 6.38,5.511 6.275,6.036 -0.047,0.238 0.266,0.508 0.697,0.601 0.43,0.093 2.03,1.269 3.554,2.614 6.1,5.384 14.742,11.703 24.8,18.131 2.56,1.636 4.662,3.119 4.672,3.295 0.01,0.176 0.121,0.409 0.246,0.517 0.125,0.109 0.1,-0.024 -0.056,-0.296 -0.347,-0.602 -0.04,-0.627 0.984,-0.079 0.426,0.228 0.653,0.611 0.505,0.851 -0.159,0.258 -0.089,0.325 0.173,0.163 0.574,-0.355 3.729,1.249 3.424,1.741 -0.132,0.215 0.058,0.264 0.446,0.115 0.496,-0.19 0.591,-0.12 0.354,0.263 -0.205,0.332 -0.169,0.428 0.097,0.263 0.553,-0.341 1.734,0.121 1.456,0.57 -0.118,0.192 0.09,0.232 0.462,0.089 0.496,-0.191 0.591,-0.12 0.355,0.263 -0.203,0.328 -0.17,0.428 0.09,0.267 0.227,-0.14 2.875,0.913 5.885,2.341 6.015,2.852 12.901,5.578 19.885,7.871 2.497,0.82 4.629,1.598 4.738,1.728 0.109,0.13 0.731,0.294 1.382,0.363 0.652,0.07 1.241,0.282 1.309,0.472 0.068,0.19 0.361,0.254 0.651,0.143 0.29,-0.111 0.639,-0.02 0.777,0.202 0.137,0.223 0.511,0.305 0.83,0.182 0.318,-0.122 0.579,-0.015 0.579,0.238 0,0.253 0.186,0.346 0.412,0.206 0.227,-0.14 0.671,-0.04 0.987,0.222 0.317,0.263 0.575,0.345 0.575,0.183 0,-0.161 0.223,-0.118 0.494,0.096 0.272,0.214 0.805,0.413 1.185,0.443 0.38,0.03 1.002,0.078 1.382,0.108 0.38,0.029 0.905,0.222 1.167,0.428 0.262,0.207 0.649,0.268 0.861,0.138 0.212,-0.131 0.504,-0.046 0.65,0.19 0.145,0.236 0.507,0.335 0.804,0.221 0.297,-0.114 0.638,-0.048 0.758,0.146 0.119,0.193 0.525,0.358 0.901,0.365 1.407,0.028 3.25,0.535 3.25,0.895 0,0.205 0.169,0.269 0.376,0.141 0.37,-0.229 7.552,0.811 8.706,1.261 0.325,0.127 0.858,0.204 1.184,0.171 0.326,-0.033 2.458,0.2 4.739,0.519 2.28,0.318 7.078,0.683 10.661,0.812 3.583,0.128 6.755,0.313 7.049,0.41 0.594,0.198 200.318,0.242 200.515,0.044 0.145,-0.145 0.069,-203.956 -0.077,-208.362 -0.055,-1.629 -0.223,-3.266 -0.375,-3.639 -0.152,-0.373 -0.215,-1.662 -0.14,-2.864 0.074,-1.202 0.037,-2.185 -0.083,-2.184 -0.329,0 -1.241,-7.847 -0.963,-8.297 0.132,-0.214 0.033,-0.39 -0.222,-0.39 -0.289,0 -0.398,-0.442 -0.291,-1.175 0.095,-0.646 0.028,-1.224 -0.149,-1.283 -0.177,-0.06 -0.368,-1.04 -0.424,-2.179 -0.056,-1.138 -0.235,-2.071 -0.398,-2.073 -0.163,-10e-4 -0.297,-0.403 -0.299,-0.891 -0.021,-7.054 -10.715,-36.534 -18.616,-51.32 -5.642,-10.557 -17.633,-27.856 -24.334,-35.104 -1.146,-1.24 -2.035,-2.403 -1.974,-2.585 0.06,-0.181 -0.068,-0.379 -0.285,-0.439 -0.58,-0.161 -5.255,-4.83 -6.216,-6.209 -0.816,-1.171 -0.808,-1.169 0.721,0.191 0.85,0.756 -0.138,-0.354 -2.197,-2.468 -2.059,-2.114 -3.825,-3.843 -3.924,-3.843 -0.099,0 0.328,0.531 0.95,1.18 0.623,0.65 1.022,1.29 0.889,1.423 -0.323,0.324 -3.902,-3.378 -3.654,-3.78 0.222,-0.359 -0.87,-1.364 -1.529,-1.406 -0.993,-0.065 -1.855,-0.711 -1.652,-1.24 0.12,-0.313 0.042,-0.454 -0.177,-0.319 -0.217,0.134 -0.5,-0.033 -0.629,-0.372 -0.13,-0.338 -0.372,-0.531 -0.537,-0.429 -0.166,0.102 -0.636,-0.207 -1.045,-0.686 -0.734,-0.862 -0.734,-0.866 0.046,-0.287 0.73,0.541 0.749,0.533 0.252,-0.101 -0.296,-0.378 -0.67,-0.606 -0.831,-0.507 -0.16,0.1 -0.629,-0.093 -1.041,-0.428 -0.412,-0.335 -0.482,-0.479 -0.157,-0.319 0.348,0.17 0.457,0.142 0.264,-0.07 -0.181,-0.197 -0.448,-0.361 -0.593,-0.364 -0.354,-0.006 -3.559,-2.214 -7.173,-4.942 -6.336,-4.782 -17.054,-11.673 -25.126,-16.153 -2.248,-1.248 -3.956,-2.415 -3.795,-2.592 0.161,-0.178 0.074,-0.198 -0.194,-0.044 -0.268,0.154 -1.689,-0.284 -3.159,-0.972 -9.473,-4.439 -17.99,-7.828 -26.364,-10.49 -1.954,-0.621 -3.61,-1.253 -3.678,-1.404 -0.068,-0.15 -0.379,-0.176 -0.691,-0.056 -0.362,0.139 -0.578,-0.047 -0.598,-0.516 -0.018,-0.416 -0.117,-0.519 -0.23,-0.24 -0.3,0.744 -1.317,0.593 -1.324,-0.197 -0.005,-0.586 -0.063,-0.602 -0.379,-0.102 -0.283,0.448 -0.482,0.479 -0.831,0.13 -0.253,-0.253 -0.705,-0.366 -1.004,-0.251 -0.341,0.131 -0.546,-0.065 -0.55,-0.525 -0.005,-0.621 -0.067,-0.642 -0.403,-0.14 -0.345,0.516 -0.466,0.5 -0.941,-0.12 -0.404,-0.528 -0.593,-0.579 -0.733,-0.198 -0.144,0.395 -0.302,0.407 -0.68,0.052 -0.271,-0.254 -0.736,-0.369 -1.033,-0.255 -0.298,0.114 -0.652,-0.082 -0.788,-0.436 -0.191,-0.498 -0.37,-0.541 -0.793,-0.19 -0.412,0.342 -0.687,0.337 -1.121,-0.024 -0.316,-0.262 -0.762,-0.362 -0.99,-0.22 -0.228,0.141 -0.523,-0.026 -0.656,-0.371 -0.186,-0.486 -0.364,-0.525 -0.787,-0.175 -0.412,0.343 -0.687,0.337 -1.121,-0.023 -0.316,-0.263 -0.768,-0.358 -1.004,-0.212 -0.237,0.146 -0.681,0.057 -0.988,-0.198 -0.306,-0.254 -0.754,-0.341 -0.994,-0.192 -0.241,0.148 -0.782,-0.042 -1.202,-0.422 -0.442,-0.401 -0.765,-0.5 -0.765,-0.237 0,0.62 -0.615,0.575 -1.283,-0.093 -0.358,-0.358 -0.764,-0.429 -1.168,-0.202 -0.405,0.226 -0.773,0.162 -1.061,-0.186 -0.25,-0.3 -0.87,-0.45 -1.427,-0.343 -0.597,0.114 -0.984,0.006 -0.984,-0.276 0,-0.256 -0.18,-0.353 -0.4,-0.217 -0.336,0.207 -6.697,-0.373 -12.828,-1.171 -0.869,-0.113 -6.2,-0.302 -11.846,-0.421 -5.647,-0.119 -10.622,-0.258 -11.056,-0.31 -0.435,-0.052 -1.856,0.031 -3.159,0.184 m 90.029,84.621 c 19.277,4.206 32.974,16.722 37.376,34.152 l 1.149,4.549 0.004,71.514 c 0.003,63.974 -0.064,71.836 -0.628,74.567 -4.424,21.42 -21.854,38.38 -42.639,41.489 -3.376,0.505 -12.936,0.591 -65.9,0.593 l -61.95,0.003 -4.19,3.092 c -2.304,1.701 -5.611,4.089 -7.348,5.306 -1.738,1.217 -3.766,2.713 -4.507,3.324 -0.741,0.611 -1.88,1.466 -2.53,1.9 -0.65,0.435 -1.85,1.234 -2.666,1.777 -0.816,0.543 -2.914,2.017 -4.663,3.276 -1.749,1.259 -3.311,2.325 -3.471,2.369 -0.16,0.045 -0.707,0.497 -1.215,1.005 -0.508,0.508 -1.181,0.825 -1.494,0.705 -0.323,-0.124 -0.529,-0.011 -0.476,0.261 0.052,0.263 -0.203,0.457 -0.566,0.429 -0.363,-0.027 -0.587,0.151 -0.497,0.395 0.089,0.245 -2.128,2.087 -4.926,4.094 -5.251,3.766 -6.756,4.651 -6.159,3.624 0.193,-0.332 0.179,-0.427 -0.034,-0.231 -0.198,0.181 -0.36,0.529 -0.36,0.774 0,0.359 -8.771,6.993 -11.292,8.541 -1.077,0.662 -1.143,-6.104 -1.142,-117.443 0,-92.899 0.077,-107.122 0.595,-110.563 1.597,-10.615 5.727,-19.146 12.624,-26.08 4.228,-4.25 11.804,-9.307 12.914,-8.621 0.25,0.154 0.331,0.095 0.188,-0.137 -0.48,-0.777 7.509,-3.682 13.359,-4.857 3.347,-0.673 7.695,-0.715 74.827,-0.735 l 71.274,-0.02 4.343,0.948 m -152.169,61.045 c 4.641,4.79 10.97,11.349 14.065,14.575 l 5.626,5.865 0.005,35.672 c 0.005,39.216 -0.071,37.893 2.437,42.073 1.897,3.161 4.428,5.482 7.792,7.144 l 2.953,1.46 42.432,0.106 c 37.322,0.093 42.722,0.031 44.838,-0.509 6.314,-1.611 11.459,-7.041 12.825,-13.536 0.769,-3.657 0.604,-84.295 -0.18,-87.741 -1.481,-6.514 -7.465,-12.111 -14.342,-13.416 -1.389,-0.263 -23.727,-0.403 -64.507,-0.403 h -62.382 l 8.438,8.71 M 26.061,285.884 c 0.443,0.868 0.895,1.579 1.003,1.579 0.109,0 -0.165,-0.711 -0.608,-1.579 -0.443,-0.869 -0.895,-1.58 -1.003,-1.58 -0.109,0 0.165,0.711 0.608,1.58"
       inkscape:connector-curvature="0"
       style="fill:#ec5353;fill-rule:evenodd;stroke:none" />
    <path
       id="path1"
       d="m 195.163,3.848 c 1.9,0.072 5.01,0.072 6.91,0 1.9,-0.073 0.346,-0.132 -3.455,-0.132 -3.801,0 -5.355,0.059 -3.455,0.132 m -10.464,0.379 c 0.489,0.094 1.288,0.094 1.777,0 0.488,-0.094 0.089,-0.171 -0.889,-0.171 -0.977,0 -1.377,0.077 -0.888,0.171 m 25.869,0.005 c 0.6,0.091 1.489,0.088 1.974,-0.005 0.486,-0.094 -0.005,-0.168 -1.091,-0.165 -1.086,0.003 -1.483,0.079 -0.883,0.17 M 180.36,4.623 c 0.491,0.094 1.202,0.091 1.579,-0.008 0.378,-0.099 -0.024,-0.176 -0.893,-0.172 -0.868,0.004 -1.177,0.085 -0.686,0.18 m 35.928,-0.001 c 0.489,0.094 1.289,0.094 1.777,0 0.489,-0.094 0.089,-0.171 -0.888,-0.171 -0.978,0 -1.377,0.077 -0.889,0.171 m -69.99,6.039 c -0.498,0.214 -0.571,0.34 -0.197,0.34 0.325,0 0.947,-0.153 1.382,-0.34 0.498,-0.214 0.57,-0.339 0.197,-0.339 -0.326,0 -0.948,0.153 -1.382,0.339 m -26.95,9.739 c -0.808,0.326 -0.559,0.866 0.297,0.642 0.434,-0.113 0.789,-0.363 0.789,-0.555 0,-0.376 -0.308,-0.401 -1.086,-0.087 m 159.823,0.523 c 0,0.273 0.928,0.795 1.414,0.795 0.539,0 0.033,-0.733 -0.624,-0.904 -0.435,-0.114 -0.79,-0.065 -0.79,0.109 m -163.146,1.091 c -0.072,0.163 -2.53,1.52 -5.462,3.015 -2.932,1.496 -5.509,2.893 -5.726,3.105 -0.217,0.212 2.393,-1.011 5.801,-2.719 5.551,-2.782 7.007,-3.697 5.881,-3.697 -0.199,0 -0.422,0.133 -0.494,0.296 m 165.91,0.03 c 0,0.361 9.923,5.282 10.165,5.04 0.093,-0.093 -1.757,-1.116 -4.11,-2.274 -2.353,-1.158 -4.367,-2.207 -4.476,-2.331 -0.354,-0.407 -1.579,-0.744 -1.579,-0.435 m 10.661,5.383 c 0,0.109 0.711,0.56 1.58,1.003 0.868,0.444 1.579,0.717 1.579,0.609 0,-0.109 -0.711,-0.56 -1.579,-1.003 -0.869,-0.444 -1.58,-0.717 -1.58,-0.609 m 4.344,2.365 c 0,0.109 0.533,0.473 1.184,0.81 0.652,0.337 1.185,0.524 1.185,0.415 0,-0.108 -0.533,-0.473 -1.185,-0.81 -0.651,-0.337 -1.184,-0.523 -1.184,-0.415 m 5.502,3.302 c 0.528,0.429 1.506,1.08 2.172,1.448 l 1.21,0.667 -0.961,-0.78 c -0.528,-0.43 -1.506,-1.081 -2.172,-1.448 l -1.21,-0.668 0.961,0.781 m 3.58,2.178 c 0,0.085 0.977,0.803 2.171,1.596 1.195,0.793 2.171,1.307 2.17,1.142 -0.003,-0.272 -0.965,-0.935 -3.453,-2.377 -0.488,-0.283 -0.888,-0.446 -0.888,-0.361 M 88.845,37.907 c -0.543,0.425 -0.809,0.772 -0.592,0.772 0.217,0 0.839,-0.347 1.382,-0.772 0.543,-0.424 0.809,-0.772 0.592,-0.772 -0.217,0 -0.839,0.348 -1.382,0.772 m 221.915,0.526 c 0,0.213 3.461,2.633 3.766,2.633 0.154,0 0.058,-0.266 -0.212,-0.592 -0.27,-0.326 -0.655,-0.592 -0.855,-0.592 -0.199,0 -0.744,-0.356 -1.21,-0.79 -0.752,-0.7 -1.489,-1.027 -1.489,-0.659 M 85.489,40.308 c -2.111,1.595 -2.641,2.211 -1.185,1.375 1.602,-0.92 3.648,-2.589 3.159,-2.578 -0.217,0.005 -1.106,0.546 -1.974,1.203 m 229.637,1.027 c 0.032,0.486 2.347,2.223 2.347,1.762 0,-0.219 -0.533,-0.777 -1.185,-1.241 -0.651,-0.464 -1.175,-0.698 -1.162,-0.521 M 81.977,42.876 c -0.148,0.385 -0.059,0.565 0.229,0.469 0.59,-0.197 0.915,-1.094 0.396,-1.094 -0.212,0 -0.493,0.281 -0.625,0.625 m 235.891,0.463 c 0,0.217 0.266,0.616 0.592,0.886 0.33,0.274 0.592,0.317 0.592,0.097 0,-0.217 -0.266,-0.616 -0.592,-0.887 -0.33,-0.274 -0.592,-0.317 -0.592,-0.096 M 80.384,44.056 c -0.362,0.362 -0.557,0.759 -0.433,0.884 0.124,0.124 0.522,-0.071 0.884,-0.433 0.362,-0.362 0.556,-0.76 0.432,-0.884 -0.124,-0.124 -0.521,0.071 -0.883,0.433 m 239.063,0.695 c 0,0.073 0.755,0.723 1.678,1.447 l 1.679,1.314 -1.361,-1.446 c -1.168,-1.241 -1.996,-1.787 -1.996,-1.315 M 78.383,45.802 c -0.394,0.436 -0.533,0.792 -0.309,0.792 0.497,0 1.482,-1.128 1.216,-1.394 -0.104,-0.104 -0.512,0.166 -0.907,0.602 m -3.52,2.986 c -1.214,0.989 -2.208,1.887 -2.208,1.996 0,0.268 1.097,-0.534 3.163,-2.314 2.42,-2.086 1.703,-1.847 -0.955,0.318 m 248.693,-0.672 c 0.835,0.941 1.024,1.027 1.024,0.467 0,-0.21 -0.399,-0.591 -0.888,-0.848 -0.884,-0.463 -0.884,-0.461 -0.136,0.381 M 70.197,52.811 c -0.592,0.367 -1.18,0.936 -1.305,1.264 -0.133,0.344 0.238,0.186 0.879,-0.376 0.609,-0.535 1.276,-1.108 1.483,-1.275 0.648,-0.522 0.064,-0.308 -1.057,0.387 m 262.706,3.494 c 0.526,0.563 1.312,1.207 1.747,1.431 0.476,0.247 0.25,-0.159 -0.571,-1.023 -0.749,-0.787 -1.535,-1.432 -1.748,-1.432 -0.212,0 0.045,0.461 0.572,1.024 m -271.478,4.53 c -2.044,2.21 -1.565,2.346 0.577,0.164 0.955,-0.973 1.55,-1.769 1.322,-1.769 -0.227,0 -1.082,0.722 -1.899,1.605 m -5.889,6.471 c -0.574,0.532 -1.044,1.099 -1.044,1.258 0,0.16 0.533,-0.22 1.184,-0.844 0.652,-0.625 1.185,-1.191 1.185,-1.259 0,-0.285 -0.338,-0.069 -1.325,0.845 m 287.998,-0.642 c 0,0.179 0.444,0.743 0.987,1.253 1.181,1.109 1.331,0.518 0.182,-0.715 -0.857,-0.921 -1.169,-1.064 -1.169,-0.538 m 3.472,3.82 c 0.525,1.014 2.846,3.232 2.846,2.72 0,-0.213 -0.733,-1.091 -1.628,-1.949 -0.895,-0.859 -1.444,-1.206 -1.218,-0.771 M 50.349,73.441 c -0.622,0.649 -1.055,1.244 -0.962,1.321 0.093,0.077 0.675,-0.454 1.294,-1.181 1.396,-1.64 1.189,-1.727 -0.332,-0.14 m 299.914,0.597 c 0.018,0.528 2.651,3.586 2.882,3.347 0.099,-0.104 -0.512,-0.988 -1.358,-1.965 -0.846,-0.978 -1.532,-1.6 -1.524,-1.382 m -302.78,2.828 c -1.368,1.536 -1.678,2.136 -0.673,1.302 0.618,-0.512 2.314,-2.75 2.082,-2.746 -0.069,0.001 -0.703,0.651 -1.409,1.444 m 305.923,1.208 c 0,0.497 1.128,1.482 1.394,1.216 0.104,-0.104 -0.166,-0.512 -0.602,-0.907 -0.436,-0.394 -0.792,-0.533 -0.792,-0.309 M 45.41,79.491 c -1.163,0.966 -2.5,2.641 -2.11,2.641 0.219,0 0.969,-0.71 1.667,-1.579 1.331,-1.657 1.423,-1.877 0.443,-1.062 m 309.94,0.945 c 0.766,1.32 1.6,2.232 1.83,2.002 0.319,-0.319 -0.58,-1.673 -1.487,-2.24 -0.668,-0.417 -0.708,-0.39 -0.343,0.238 M 40.723,85.525 c -1.146,1.649 -2.01,3.073 -1.919,3.164 0.092,0.092 0.942,-0.947 1.891,-2.307 0.948,-1.36 1.953,-2.708 2.232,-2.995 0.584,-0.599 0.643,-0.86 0.194,-0.86 -0.172,0 -1.252,1.349 -2.398,2.998 m 318.072,-0.53 c 0.167,0.272 1.753,2.626 3.525,5.232 9.575,14.085 17.457,29.759 22.834,45.41 0.074,0.217 0.177,0.572 0.228,0.789 0.051,0.218 0.329,1.017 0.618,1.777 0.289,0.76 1.013,3.112 1.609,5.226 0.596,2.114 1.155,3.773 1.242,3.686 0.351,-0.352 -2.518,-9.915 -5.163,-17.204 -3.759,-10.362 -11.997,-26.567 -18.103,-35.615 -0.835,-1.237 -1.518,-2.436 -1.518,-2.665 0,-0.229 -0.178,-0.417 -0.395,-0.417 -0.217,0 -0.395,-0.266 -0.395,-0.592 0,-0.326 -0.147,-0.592 -0.328,-0.592 -0.18,0 -0.58,-0.489 -0.888,-1.086 -0.594,-1.152 -0.718,-1.331 -1.95,-2.825 -0.43,-0.522 -0.782,-1.099 -0.782,-1.283 0,-0.184 -0.188,-0.335 -0.418,-0.335 -0.233,0 -0.284,0.219 -0.116,0.494 m -223.06,2.944 c 0.489,0.094 1.289,0.094 1.777,0 0.489,-0.094 0.089,-0.171 -0.888,-0.171 -0.977,0 -1.377,0.077 -0.889,0.171 m 134.255,0 c 0.489,0.094 1.288,0.094 1.777,0 0.489,-0.094 0.089,-0.171 -0.888,-0.171 -0.978,0 -1.378,0.077 -0.889,0.171 M 37.58,90.068 c -0.749,1.199 -0.298,1.36 0.48,0.171 0.36,-0.549 0.516,-0.999 0.346,-0.999 -0.17,0 -0.542,0.373 -0.826,0.828 m 87,-0.433 c -0.497,0.214 -0.57,0.339 -0.197,0.339 0.326,0 0.948,-0.153 1.382,-0.339 0.498,-0.214 0.571,-0.34 0.197,-0.34 -0.325,0 -0.947,0.153 -1.382,0.34 m 168.411,4.248 c 0,0.176 0.533,0.635 1.185,1.02 0.651,0.385 1.184,0.57 1.184,0.411 0,-0.159 0.444,0.128 0.986,0.637 0.542,0.509 1.085,0.826 1.207,0.704 0.122,-0.122 -0.277,-0.572 -0.887,-1.001 -1.647,-1.158 -3.675,-2.136 -3.675,-1.771 M 109.24,96.802 c -1.249,0.886 -2.191,1.692 -2.093,1.79 0.139,0.138 2.365,-1.282 4.567,-2.912 0.091,-0.067 0.082,-0.205 -0.019,-0.306 -0.101,-0.101 -1.206,0.541 -2.455,1.428 m 188.957,0.355 c 0.076,0.229 0.757,0.784 1.514,1.234 l 1.375,0.818 -1.337,-1.233 c -1.413,-1.304 -1.778,-1.496 -1.552,-0.819 m -266.41,2.349 c -0.337,0.652 -0.524,1.185 -0.415,1.185 0.108,0 0.473,-0.533 0.81,-1.185 0.337,-0.651 0.523,-1.184 0.415,-1.184 -0.109,0 -0.473,0.533 -0.81,1.184 m 73.817,0.166 c -0.421,0.308 -0.661,0.664 -0.534,0.792 0.128,0.127 0.555,-0.125 0.95,-0.56 0.838,-0.927 0.666,-1.024 -0.416,-0.232 M 301.283,99.22 c 0,0.319 1.146,1.492 4.529,4.638 1.825,1.697 2.304,2.027 1.421,0.979 -1.89,-2.245 -5.95,-6.078 -5.95,-5.617 m -198.834,3.544 -1.561,1.678 1.679,-1.561 c 1.56,-1.451 1.859,-1.795 1.561,-1.795 -0.065,0 -0.82,0.755 -1.679,1.678 m -72.637,0.296 c -0.336,0.652 -0.523,1.185 -0.415,1.185 0.109,0 0.473,-0.533 0.81,-1.185 0.337,-0.651 0.524,-1.184 0.415,-1.184 -0.108,0 -0.473,0.533 -0.81,1.184 m -1.881,3.258 c -1.39,2.405 -4.073,7.829 -4.426,8.944 -0.164,0.522 -0.791,1.783 -1.392,2.803 -1.368,2.319 -1.781,3.554 -1.188,3.554 0.244,0 0.344,-0.163 0.221,-0.361 -0.123,-0.199 -0.062,-0.421 0.136,-0.494 0.197,-0.073 1.185,-1.975 2.194,-4.227 1.01,-2.252 2.717,-5.85 3.794,-7.996 2.023,-4.032 2.359,-5.163 0.661,-2.223 m 71.697,-0.799 c -1.889,2.465 -2.529,3.464 -2.219,3.464 0.423,0 3.013,-3.559 2.768,-3.804 -0.09,-0.09 -0.337,0.063 -0.549,0.34 m 209.553,2.28 c 0.464,0.651 0.932,1.184 1.041,1.184 0.108,0 -0.183,-0.533 -0.646,-1.184 -0.464,-0.652 -0.933,-1.185 -1.041,-1.185 -0.109,0 0.182,0.533 0.646,1.185 m -213.137,2.764 c -0.273,0.437 -0.322,0.789 -0.109,0.789 0.212,0 0.575,-0.355 0.807,-0.789 0.233,-0.435 0.282,-0.79 0.109,-0.79 -0.172,0 -0.535,0.355 -0.807,0.79 m 216.574,2.95 c 0.583,1.189 1.126,2.095 1.207,2.014 0.177,-0.178 -1.814,-4.175 -2.08,-4.175 -0.103,0 0.29,0.973 0.873,2.161 m -219.78,3.411 c -0.244,0.698 -0.374,1.338 -0.289,1.423 0.084,0.084 0.352,-0.418 0.596,-1.115 0.243,-0.698 0.373,-1.338 0.288,-1.423 -0.084,-0.084 -0.352,0.418 -0.595,1.115 m 222.716,3.905 c 0,0.326 0.153,0.948 0.339,1.382 0.214,0.498 0.34,0.571 0.34,0.198 0,-0.326 -0.153,-0.948 -0.34,-1.382 -0.214,-0.498 -0.339,-0.571 -0.339,-0.198 m -224.537,1.58 c -0.15,0.682 -0.19,1.323 -0.09,1.424 0.101,0.1 0.297,-0.385 0.435,-1.079 0.329,-1.646 0.01,-1.965 -0.345,-0.345 m -71.182,0.493 c -0.674,1.371 -0.97,2.666 -0.609,2.666 0.179,0 0.614,-0.8 0.965,-1.777 0.661,-1.838 0.414,-2.455 -0.356,-0.889 m -1.535,3.67 c -0.367,0.957 0.145,1.13 0.636,0.214 0.305,-0.571 0.311,-0.824 0.019,-0.824 -0.232,0 -0.526,0.275 -0.655,0.61 m 298.87,1.76 c 0,0.76 0.081,1.071 0.18,0.691 0.099,-0.38 0.099,-1.002 0,-1.382 -0.099,-0.38 -0.18,-0.069 -0.18,0.691 m -300.006,0.957 c -0.764,1.827 -3.726,11.125 -3.972,12.468 -0.1,0.543 0.965,-2.298 2.366,-6.314 2.312,-6.628 3.157,-9.867 1.606,-6.154 m 72.562,1.017 c 0,0.76 0.082,1.071 0.181,0.691 0.099,-0.38 0.099,-1.002 0,-1.382 -0.099,-0.38 -0.181,-0.069 -0.181,0.691 m 227.94,68.707 c 0,37.68 0.046,53.095 0.103,34.255 0.057,-18.841 0.057,-49.67 0,-68.51 -0.057,-18.84 -0.103,-3.425 -0.103,34.255 M 89.434,240.869 c 0,58.529 0.046,82.473 0.102,53.208 0.056,-29.265 0.056,-77.152 0,-106.417 -0.056,-29.264 -0.102,-5.32 -0.102,53.209 m 28.631,-99.798 c 0,0.274 2.698,3.162 5.996,6.417 l 5.995,5.918 -5.846,-6.218 -5.846,-6.218 63.326,-0.101 63.325,-0.101 -63.475,-0.098 c -50.903,-0.078 -63.475,0.001 -63.475,0.401 m 131.491,1.278 c 0.543,0.311 1.165,0.565 1.382,0.565 0.217,0 -0.05,-0.254 -0.592,-0.565 -0.543,-0.31 -1.165,-0.564 -1.383,-0.564 -0.217,0 0.05,0.254 0.593,0.564 m -236.97,0.724 c -0.071,0.379 -0.144,0.652 -0.71,2.631 -0.279,0.977 -0.568,2.088 -0.641,2.47 -0.074,0.381 -0.243,0.871 -0.377,1.087 -0.134,0.216 -0.083,0.393 0.113,0.393 0.419,0 2.214,-6.295 1.887,-6.621 -0.122,-0.123 -0.244,-0.104 -0.272,0.04 m 242.924,3.225 c 0.982,1.086 2.126,2.552 2.542,3.258 0.416,0.706 0.895,1.283 1.065,1.283 0.493,0 -2.251,-3.618 -3.894,-5.133 -1.29,-1.191 -1.25,-1.108 0.287,0.592 m -245.06,4.791 c -0.137,0.623 -0.318,1.354 -0.401,1.626 -0.084,0.271 0,0.493 0.186,0.493 0.383,0 0.983,-2.734 0.669,-3.048 -0.113,-0.112 -0.316,0.306 -0.454,0.929 m -0.628,2.843 c -0.061,0.569 -0.088,0.679 -0.665,2.633 -0.552,1.872 -0.573,2.171 -0.154,2.171 0.382,0 1.404,-4.729 1.09,-5.043 -0.122,-0.122 -0.244,-0.014 -0.271,0.239 m 250.79,3.817 c 0,0.76 0.178,1.382 0.395,1.382 0.217,0 0.395,-0.622 0.395,-1.382 0,-0.76 -0.178,-1.382 -0.395,-1.382 -0.217,0 -0.395,0.622 -0.395,1.382 m -120.93,5.784 6.414,6.462 0.103,35.14 0.103,35.141 0.097,-35.186 0.097,-35.187 -5.775,-5.99 c -3.176,-3.295 -6.153,-6.182 -6.614,-6.416 -0.462,-0.234 2.047,2.483 5.575,6.036 M 8.497,160.118 c -0.113,0.543 -0.306,1.476 -0.43,2.074 -0.146,0.704 -0.091,0.947 0.157,0.691 0.431,-0.446 1.05,-3.752 0.703,-3.752 -0.124,0 -0.317,0.445 -0.43,0.987 m -0.719,3.907 c -0.162,0.411 -0.201,0.84 -0.087,0.954 0.36,0.36 0.677,-0.23 0.526,-0.98 -0.139,-0.687 -0.16,-0.686 -0.439,0.026 m -0.461,2.33 c -0.169,0.389 -0.196,0.818 -0.061,0.954 0.401,0.401 0.724,-0.162 0.54,-0.94 -0.164,-0.69 -0.185,-0.691 -0.479,-0.014 m -0.332,2.398 c -0.171,0.623 -0.213,1.23 -0.094,1.35 0.412,0.411 0.67,-0.242 0.538,-1.36 l -0.134,-1.122 -0.31,1.132 m -0.395,3.159 c -0.171,0.623 -0.213,1.23 -0.094,1.349 0.412,0.412 0.671,-0.241 0.538,-1.359 L 6.901,170.78 6.59,171.912 m -0.44,3.131 c -0.177,0.607 -0.212,1.215 -0.077,1.349 0.442,0.442 0.702,-0.189 0.549,-1.331 l -0.151,-1.122 -0.321,1.104 m 388.035,2.647 c 0,0.977 0.077,1.377 0.171,0.888 0.094,-0.488 0.094,-1.288 0,-1.776 -0.094,-0.489 -0.171,-0.089 -0.171,0.888 M 5.779,178.804 c -0.179,0.722 -0.22,1.417 -0.091,1.547 0.446,0.446 0.685,-0.22 0.551,-1.537 l -0.135,-1.321 -0.325,1.311 m 388.792,4.612 c 0.005,0.868 0.086,1.177 0.18,0.686 0.095,-0.491 0.091,-1.202 -0.008,-1.579 -0.099,-0.378 -0.176,0.024 -0.172,0.893 M 5.429,182.954 c -0.469,1.147 -0.376,2.872 0.128,2.368 0.233,-0.233 0.366,-1.024 0.296,-1.757 -0.099,-1.033 -0.194,-1.171 -0.424,-0.611 m -0.145,8.754 c 0.001,2.606 0.065,3.621 0.142,2.255 0.077,-1.366 0.077,-3.498 -0.001,-4.739 -0.078,-1.24 -0.142,-0.122 -0.141,2.484 m 389.486,99.309 c -0.056,55.597 0.033,101.086 0.195,101.086 0.163,0 0.297,-45.489 0.297,-101.086 0,-55.597 -0.089,-101.086 -0.196,-101.086 -0.108,0 -0.241,45.489 -0.296,101.086 M 5.284,203.949 c 0.001,2.606 0.065,3.621 0.142,2.255 0.077,-1.366 0.077,-3.498 -0.001,-4.739 -0.078,-1.24 -0.142,-0.122 -0.141,2.484 m -0.145,7.183 c 0.004,0.61 0.179,1.375 0.389,1.701 0.285,0.442 0.384,0.221 0.389,-0.865 0.003,-0.802 -0.172,-1.567 -0.389,-1.701 -0.228,-0.141 -0.392,0.225 -0.389,0.865 m 0.395,4.936 c 0.004,0.718 0.178,1.573 0.389,1.898 0.281,0.435 0.384,0.152 0.389,-1.062 0.003,-0.91 -0.172,-1.765 -0.389,-1.899 -0.233,-0.144 -0.392,0.291 -0.389,1.063 m 0.395,3.774 c 0.003,0.38 0.178,0.958 0.389,1.283 0.29,0.45 0.384,0.283 0.389,-0.691 0.003,-0.705 -0.172,-1.283 -0.389,-1.283 -0.217,0 -0.392,0.311 -0.389,0.691 m 0.395,3.159 c 0.003,0.38 0.178,0.958 0.389,1.283 0.29,0.45 0.384,0.283 0.389,-0.691 0.003,-0.706 -0.172,-1.283 -0.389,-1.283 -0.217,0 -0.392,0.311 -0.389,0.691 m 0.395,2.741 c 0.003,0.393 0.178,0.981 0.389,1.306 0.299,0.464 0.384,0.361 0.388,-0.47 0.004,-0.584 -0.171,-1.172 -0.388,-1.307 -0.218,-0.134 -0.393,0.078 -0.389,0.471 m 0.416,2.369 c 0.089,1.025 0.707,1.894 0.735,1.034 0.015,-0.476 -0.15,-0.975 -0.368,-1.109 -0.217,-0.135 -0.382,-0.101 -0.367,0.075 m 0.367,2.665 c 0,0.313 0.178,0.679 0.395,0.813 0.218,0.135 0.395,-0.121 0.395,-0.569 0,-0.447 -0.177,-0.813 -0.395,-0.813 -0.217,0 -0.395,0.256 -0.395,0.569 m 0.401,1.876 c 0.012,0.991 0.771,1.808 0.778,0.836 0.003,-0.476 -0.172,-0.975 -0.389,-1.109 -0.217,-0.134 -0.392,-0.011 -0.389,0.273 m 0.389,2.445 c 0,0.325 0.178,0.702 0.395,0.836 0.217,0.134 0.395,-0.023 0.395,-0.348 0,-0.326 -0.178,-0.703 -0.395,-0.837 -0.217,-0.134 -0.395,0.023 -0.395,0.349 m 0.715,3.205 c 0.089,0.76 0.34,1.382 0.559,1.382 0.22,0 0.291,-0.397 0.16,-0.888 -0.131,-0.489 -0.241,-1.111 -0.244,-1.382 -0.003,-0.272 -0.147,-0.494 -0.321,-0.494 -0.173,0 -0.243,0.622 -0.154,1.382 m 251.901,0.818 c -0.163,0.165 -0.296,0.84 -0.296,1.499 0,0.856 0.121,1.076 0.426,0.772 0.234,-0.235 0.367,-0.909 0.296,-1.499 -0.071,-0.59 -0.263,-0.938 -0.426,-0.772 M 9.825,241.362 c 0.18,0.489 0.255,1.095 0.167,1.346 -0.089,0.252 0.053,0.59 0.315,0.753 0.354,0.218 0.411,-0.04 0.219,-1.001 -0.143,-0.712 -0.259,-1.451 -0.259,-1.641 0,-0.19 -0.174,-0.345 -0.386,-0.345 -0.233,0 -0.255,0.35 -0.056,0.888 m 0.904,3.258 c -0.007,0.434 0.141,1.145 0.327,1.579 0.433,1.007 0.433,-0.032 0,-1.382 -0.254,-0.793 -0.318,-0.832 -0.327,-0.197 m 0.327,2.938 c 0,0.204 0.181,0.483 0.402,0.62 0.22,0.136 0.306,0.401 0.191,0.588 -0.116,0.187 -0.03,0.452 0.191,0.588 0.457,0.283 0.492,-0.011 0.152,-1.279 -0.232,-0.867 -0.936,-1.256 -0.936,-0.517 m 0.79,2.595 c 0,0.112 0.167,0.512 0.371,0.889 0.204,0.377 0.479,1.195 0.612,1.818 0.132,0.623 0.328,1.044 0.436,0.937 0.306,-0.306 -0.68,-3.846 -1.071,-3.846 -0.191,0 -0.348,0.091 -0.348,0.202 m 141.362,3.158 c 0,0.071 0.667,0.534 1.481,1.029 0.814,0.495 1.611,1.087 1.771,1.315 0.159,0.229 0.293,0.262 0.296,0.075 0.003,-0.188 0.406,-0.084 0.895,0.231 1.155,0.745 2.665,1.122 2.665,0.665 0,-0.196 -0.257,-0.357 -0.571,-0.357 -0.314,0 -1.913,-0.695 -3.554,-1.544 -1.64,-0.849 -2.983,-1.485 -2.983,-1.414 m -138.719,5.228 c 0.767,2.335 1.641,4.805 1.942,5.489 0.302,0.684 0.548,1.528 0.548,1.876 0,0.347 0.193,0.631 0.428,0.631 0.235,0 0.338,-0.222 0.228,-0.494 -0.11,-0.271 -1.053,-3.025 -2.096,-6.12 -1.043,-3.095 -2.019,-5.627 -2.169,-5.627 -0.151,0 0.353,1.91 1.119,4.245 m 234.573,-2.788 c -0.38,0.099 -0.691,0.345 -0.691,0.546 0,0.558 0.635,0.437 1.185,-0.226 0.27,-0.326 0.425,-0.572 0.344,-0.546 -0.081,0.025 -0.458,0.127 -0.838,0.226 m -87.956,1.307 c 0,0.217 0.355,0.395 0.789,0.395 0.435,0 0.79,-0.178 0.79,-0.395 0,-0.217 -0.355,-0.395 -0.79,-0.395 -0.434,0 -0.789,0.178 -0.789,0.395 m 83.317,0 c 0,0.217 0.256,0.395 0.569,0.395 0.312,0 0.678,-0.178 0.813,-0.395 0.134,-0.217 -0.122,-0.395 -0.569,-0.395 -0.448,0 -0.813,0.178 -0.813,0.395 M 17.904,267.531 c 0.272,1.341 1.548,4.137 1.889,4.137 0.31,0 -0.158,-1.592 -0.741,-2.524 -0.151,-0.241 -0.311,-0.683 -0.356,-0.982 -0.045,-0.3 -0.278,-0.741 -0.516,-0.979 -0.315,-0.315 -0.39,-0.22 -0.276,0.348 m 299.266,2.163 c 0,0.76 0.081,1.071 0.18,0.691 0.099,-0.38 0.099,-1.002 0,-1.382 -0.099,-0.38 -0.18,-0.069 -0.18,0.691 m -295.212,7.469 c 1.388,2.805 2.524,5.197 2.524,5.317 0,0.119 0.533,1.058 1.184,2.085 0.652,1.027 1.185,1.754 1.185,1.615 0,-0.375 -4.661,-9.895 -5.103,-10.422 -0.208,-0.249 -0.27,-0.56 -0.138,-0.691 0.132,-0.132 0.032,-0.24 -0.221,-0.24 -0.254,0 -0.432,-0.133 -0.396,-0.296 0.156,-0.714 -0.592,-2.468 -1.053,-2.468 -0.308,0 0.481,1.995 2.018,5.1 m 293.392,0.873 c -0.138,0.693 -0.179,1.334 -0.089,1.424 0.089,0.089 0.285,-0.396 0.435,-1.079 0.15,-0.683 0.19,-1.323 0.09,-1.424 -0.101,-0.101 -0.297,0.385 -0.436,1.079 m -3.895,9.56 c -1.029,1.99 -1.592,3.263 -1.251,2.828 0.755,-0.96 3.42,-6.152 3.247,-6.324 -0.068,-0.068 -0.966,1.505 -1.996,3.496 m -282.432,3.421 c 0.337,0.651 0.701,1.184 0.81,1.184 0.108,0 -0.079,-0.533 -0.415,-1.184 -0.337,-0.652 -0.702,-1.185 -0.81,-1.185 -0.109,0 0.078,0.533 0.415,1.185 m 279.205,1.993 c -0.582,0.879 -1.692,2.301 -2.468,3.159 -0.775,0.858 -1.233,1.561 -1.017,1.561 0.382,0 2.838,-3.036 4.233,-5.232 1.092,-1.718 0.426,-1.263 -0.748,0.512 m -277.626,0.771 c 0.337,0.651 0.702,1.184 0.81,1.184 0.109,0 -0.078,-0.533 -0.415,-1.184 -0.337,-0.652 -0.701,-1.185 -0.81,-1.185 -0.109,0 0.078,0.533 0.415,1.185 m 2.911,4.936 c 0.213,0.434 0.677,1.145 1.031,1.579 l 0.643,0.79 -0.388,-0.79 c -0.213,-0.434 -0.677,-1.145 -1.031,-1.579 l -0.643,-0.79 0.388,0.79 m 268.732,1.294 c -0.666,0.591 -1.466,1.428 -1.777,1.86 -0.986,1.367 1.176,-0.221 2.319,-1.703 1.178,-1.528 1.044,-1.567 -0.542,-0.157 m -265.911,3.247 c 0.889,1.762 4.039,6.318 4.368,6.318 0.176,0 -0.675,-1.466 -1.892,-3.258 -2.425,-3.571 -3.244,-4.583 -2.476,-3.06 m 260.403,1.517 c -1.306,1.011 -2.816,2.164 -3.356,2.56 -0.973,0.714 -0.971,0.715 0.202,0.044 1.61,-0.921 6.121,-4.119 6.121,-4.339 0,-0.423 -0.741,0.01 -2.967,1.735 m -6.214,4.038 c -0.814,0.43 -1.481,0.87 -1.481,0.977 0,0.108 0.711,-0.166 1.58,-0.609 0.869,-0.444 1.579,-0.891 1.579,-0.996 0,-0.258 -0.002,-0.257 -1.678,0.628 m -3.455,1.75 c -0.543,0.31 -0.809,0.564 -0.592,0.564 0.217,0 0.839,-0.254 1.382,-0.564 0.543,-0.311 0.809,-0.565 0.592,-0.565 -0.217,0 -0.839,0.254 -1.382,0.565 m -7.305,2.566 c -0.498,0.214 -0.571,0.34 -0.197,0.34 0.325,0 0.947,-0.153 1.382,-0.34 0.497,-0.214 0.57,-0.339 0.197,-0.339 -0.326,0 -0.948,0.153 -1.382,0.339 m -102.369,1.876 c 17.103,0.057 45.089,0.057 62.191,0 17.103,-0.057 3.11,-0.104 -31.095,-0.104 -34.206,0 -48.199,0.047 -31.096,0.104 m -130.8,2.468 c 0.688,0.869 1.34,1.579 1.449,1.579 0.108,0 -0.366,-0.71 -1.054,-1.579 -0.688,-0.869 -1.34,-1.58 -1.448,-1.58 -0.109,0 0.365,0.711 1.053,1.58 m 10.577,12.438 c 0.226,0.435 0.983,1.323 1.681,1.974 0.88,0.821 1.143,0.942 0.858,0.395 -0.227,-0.434 -0.983,-1.322 -1.682,-1.974 -0.879,-0.82 -1.143,-0.942 -0.857,-0.395 m 8.377,8.256 c 0,0.46 3.171,3.393 3.668,3.393 0.227,0 0.335,-0.045 0.24,-0.099 -0.094,-0.054 -1.012,-0.891 -2.04,-1.859 -1.027,-0.968 -1.868,-1.614 -1.868,-1.435 m 44.385,3.055 c -0.748,0.843 -0.748,0.845 0.136,0.381 0.489,-0.256 0.889,-0.637 0.889,-0.847 0,-0.561 -0.189,-0.475 -1.025,0.466 m -39.114,1.821 c 0.155,0.25 0.841,0.853 1.525,1.34 0.684,0.487 1.118,0.681 0.963,0.432 -0.154,-0.25 -0.84,-0.853 -1.524,-1.34 -0.685,-0.487 -1.118,-0.682 -0.964,-0.432 m 3.609,3.219 c 0.748,0.857 2.176,1.827 2.176,1.479 0,-0.091 -0.666,-0.663 -1.481,-1.272 -1.212,-0.906 -1.338,-0.944 -0.695,-0.207 m 3.126,2.743 c 0.835,0.941 1.024,1.027 1.024,0.466 0,-0.21 -0.399,-0.591 -0.888,-0.847 -0.884,-0.464 -0.884,-0.462 -0.136,0.381 m 12.221,3.808 c -0.001,1.955 0.065,2.804 0.148,1.888 0.083,-0.916 0.084,-2.516 0.002,-3.554 -0.081,-1.038 -0.149,-0.288 -0.15,1.666 M 79.21,350.405 c 0.255,0.664 1.343,1.177 1.343,0.633 0,-0.203 -0.352,-0.557 -0.781,-0.786 -0.626,-0.336 -0.738,-0.305 -0.562,0.153 m 1.738,1.312 c 0,0.173 0.355,0.536 0.789,0.807 0.438,0.274 0.79,0.322 0.79,0.109 0,-0.211 -0.355,-0.574 -0.79,-0.807 -0.434,-0.232 -0.789,-0.281 -0.789,-0.109 m 1.974,1.412 c 0,0.498 15.988,11.333 16.723,11.333 0.143,0 -3.224,-2.354 -7.482,-5.232 -4.257,-2.878 -8.078,-5.476 -8.491,-5.774 -0.412,-0.298 -0.75,-0.445 -0.75,-0.327 m 22.113,14.262 c 0,0.122 1.454,0.952 3.231,1.846 1.778,0.894 3.923,2.061 4.768,2.594 0.844,0.533 1.714,0.91 1.931,0.838 0.218,-0.073 -1.927,-1.34 -4.767,-2.816 -2.84,-1.475 -5.163,-2.583 -5.163,-2.462 m 10.661,5.712 c 0,0.192 0.311,0.459 0.691,0.593 0.38,0.134 0.913,0.347 1.185,0.473 0.271,0.127 0.493,0.008 0.493,-0.263 0,-0.272 -0.11,-0.384 -0.244,-0.249 -0.135,0.134 -0.503,-0.014 -0.818,-0.329 -0.642,-0.642 -1.307,-0.756 -1.307,-0.225 m 5.133,2.33 c 0,0.365 1.972,1.404 2.211,1.165 0.074,-0.074 -0.393,-0.446 -1.038,-0.827 -0.645,-0.381 -1.173,-0.533 -1.173,-0.338 m 7.108,3.299 c 2.703,1.201 9.564,3.536 9.98,3.397 0.203,-0.068 -0.672,-0.447 -1.943,-0.842 -1.271,-0.396 -3.884,-1.323 -5.806,-2.06 -3.838,-1.471 -5.021,-1.734 -2.231,-0.495 m 13.623,4.684 c 0.434,0.186 1.056,0.339 1.382,0.339 0.373,0 0.3,-0.125 -0.198,-0.339 -0.434,-0.187 -1.056,-0.34 -1.382,-0.34 -0.373,0 -0.3,0.126 0.198,0.34 m 32.28,6.985 c 0.38,0.099 1.002,0.099 1.382,0 0.38,-0.1 0.069,-0.181 -0.691,-0.181 -0.76,0 -1.071,0.081 -0.691,0.181 m 7.7,0.796 c 0.489,0.094 1.288,0.094 1.777,0 0.489,-0.094 0.089,-0.171 -0.889,-0.171 -0.977,0 -1.377,0.077 -0.888,0.171 m 5.726,0.404 c 0.814,0.085 2.147,0.085 2.961,0 0.814,-0.086 0.148,-0.155 -1.481,-0.155 -1.629,0 -2.295,0.069 -1.48,0.155 m 58.045,0.403 c 26.658,0.056 70.281,0.056 96.94,0 26.658,-0.056 4.847,-0.102 -48.47,-0.102 -53.317,0 -75.128,0.046 -48.47,0.102"
       inkscape:connector-curvature="0"
       style="fill:#e78484;fill-rule:evenodd;stroke:none" />
    <path
       id="path2"
       d="m 299.811,97.963 c 0.384,0.224 0.579,0.602 0.432,0.839 -0.159,0.259 -0.084,0.319 0.19,0.15 0.25,-0.155 0.455,-0.064 0.455,0.202 0,0.266 0.118,0.367 0.261,0.223 0.324,-0.323 -1.013,-1.849 -1.605,-1.833 -0.238,0.007 -0.118,0.195 0.267,0.419 m -197.058,4.022 c -1.351,1.363 -2.457,2.596 -2.457,2.74 0,0.144 1.155,-0.905 2.567,-2.331 2.331,-2.354 2.785,-2.888 2.456,-2.888 -0.06,0 -1.215,1.116 -2.566,2.479 m 199.123,-2.084 c -0.135,0.217 -0.19,0.409 -0.122,0.425 1.3,0.322 1.521,0.269 1.082,-0.259 -0.553,-0.667 -0.641,-0.682 -0.96,-0.166 M 89.339,133.268 c 0.005,0.868 0.086,1.177 0.18,0.686 0.095,-0.491 0.091,-1.202 -0.008,-1.58 -0.099,-0.377 -0.176,0.025 -0.172,0.894 m 36.623,15.794 c 1.18,1.195 2.234,2.172 2.343,2.172 0.108,0 -0.768,-0.977 -1.948,-2.172 -1.179,-1.194 -2.233,-2.172 -2.342,-2.172 -0.108,0 0.768,0.978 1.947,2.172 m 5.923,6.318 c 1.18,1.195 2.234,2.172 2.343,2.172 0.108,0 -0.768,-0.977 -1.948,-2.172 -1.179,-1.194 -2.233,-2.172 -2.342,-2.172 -0.108,0 0.768,0.978 1.947,2.172 m 128.727,43.854 c 0,26.634 0.133,40.02 0.395,39.858 0.259,-0.16 0.395,-13.956 0.395,-40.102 0,-26.309 -0.134,-39.859 -0.395,-39.859 -0.261,0 -0.395,13.631 -0.395,40.103 M 144.916,168.411 c 0.737,0.76 1.428,1.382 1.537,1.382 0.109,0 -0.405,-0.622 -1.142,-1.382 -0.737,-0.76 -1.428,-1.382 -1.537,-1.382 -0.109,0 0.405,0.622 1.142,1.382 m 17.769,88.647 c 0,0.261 13.886,0.395 40.869,0.395 26.982,0 40.869,-0.134 40.869,-0.395 0,-0.26 -13.887,-0.395 -40.869,-0.395 -26.983,0 -40.869,0.135 -40.869,0.395 m 140.927,41.955 -0.884,1.283 1.252,-1.16 c 1.35,-1.25 1.448,-1.406 0.884,-1.406 -0.202,0 -0.766,0.577 -1.252,1.283 M 176.999,315.4 c 17.103,0.057 45.089,0.057 62.192,0 17.102,-0.057 3.109,-0.104 -31.096,-0.104 -34.206,0 -48.199,0.047 -31.096,0.104"
       inkscape:connector-curvature="0"
       style="fill:#e57374;fill-rule:evenodd;stroke:none" />
    <path
       id="path3"
       d="m 131.293,15.815 c -0.434,0.199 -1.303,0.548 -1.93,0.774 -0.628,0.227 -1.052,0.501 -0.945,0.609 0.227,0.226 3.862,-1.268 3.862,-1.587 0,-0.252 0.013,-0.254 -0.987,0.204 m 136.065,0.508 c 0.38,0.308 3.521,1.424 3.521,1.251 0,-0.237 -2.714,-1.384 -3.273,-1.384 -0.227,0 -0.339,0.059 -0.248,0.133 m 41.823,21.319 c 0,0.587 3.52,2.613 3.787,2.181 0.164,-0.265 0.112,-0.352 -0.123,-0.207 -0.223,0.138 -0.873,-0.182 -1.443,-0.71 -0.57,-0.529 -1.037,-0.859 -1.037,-0.734 0,0.125 -0.266,0.006 -0.592,-0.265 -0.326,-0.27 -0.592,-0.389 -0.592,-0.265 M 63.083,59.814 c -1.09,1.19 -2.18,2.05 -2.424,1.911 -0.243,-0.139 -0.308,-0.105 -0.145,0.075 0.164,0.18 0.003,0.653 -0.357,1.05 -1.63,1.801 -0.038,0.445 2.627,-2.238 1.618,-1.629 2.793,-2.961 2.611,-2.961 -0.182,0 -1.222,0.973 -2.312,2.163 m 278.441,4.878 c 0.485,0.905 1.525,1.784 2.237,1.888 0.298,0.044 -0.1,-0.526 -0.885,-1.266 -1.618,-1.526 -1.906,-1.659 -1.352,-0.622 M 45.36,79.171 c -0.027,0.108 -0.074,0.33 -0.104,0.493 -0.031,0.163 -0.217,0.563 -0.414,0.889 -0.221,0.366 -0.034,0.308 0.49,-0.152 0.467,-0.409 0.754,-0.897 0.637,-1.086 -0.234,-0.378 -0.532,-0.449 -0.609,-0.144 m 311.517,3.826 c 0.566,0.566 1.76,0.797 1.439,0.279 -0.124,-0.202 -0.392,-0.265 -0.594,-0.14 -0.202,0.125 -0.368,0.039 -0.368,-0.191 0,-0.23 -0.213,-0.418 -0.473,-0.418 -0.367,0 -0.368,0.107 -0.004,0.47 M 41.71,84.915 c -0.388,0.657 -0.887,1.062 -1.126,0.914 -0.257,-0.158 -0.316,-0.081 -0.148,0.191 0.155,0.251 0.348,0.456 0.429,0.456 0.273,0 1.868,-2.413 1.704,-2.577 -0.089,-0.09 -0.476,0.368 -0.859,1.016 m -2.234,3.1 c -0.893,1.048 -1.387,2.015 -1.029,2.015 0.08,0 0.615,-0.711 1.19,-1.58 1.236,-1.868 1.183,-2.011 -0.161,-0.435 m -2.666,3.387 c 0.156,0.174 -0.085,0.834 -0.537,1.469 -0.452,0.634 -0.755,1.219 -0.675,1.299 0.081,0.081 0.541,-0.454 1.022,-1.189 0.65,-0.991 0.751,-1.408 0.39,-1.614 -0.266,-0.154 -0.357,-0.138 -0.2,0.035 m -18.55,36.007 c -0.273,0.11 -0.414,0.332 -0.315,0.494 0.216,0.349 -2.712,8.815 -2.964,8.569 -0.095,-0.094 -0.199,0.479 -0.23,1.274 -0.031,0.794 0.038,1.178 0.153,0.852 1.477,-4.188 3.966,-11.444 3.916,-11.42 -0.035,0.017 -0.287,0.121 -0.56,0.231 m 370.693,21.686 c 0.02,0.711 1.894,7.459 1.929,6.943 0.041,-0.597 -1.523,-6.888 -1.774,-7.14 -0.09,-0.091 -0.16,-0.002 -0.155,0.197 m 1.965,8.631 c 0,0.53 0.146,1.054 0.323,1.164 0.178,0.11 0.247,-0.324 0.153,-0.964 -0.207,-1.411 -0.476,-1.524 -0.476,-0.2 m 2.461,14.831 c 0,0.76 0.081,1.071 0.18,0.691 0.1,-0.38 0.1,-1.002 0,-1.382 -0.099,-0.38 -0.18,-0.069 -0.18,0.691 m 0.395,3.948 c 0,0.761 0.081,1.072 0.18,0.691 0.1,-0.38 0.1,-1.002 0,-1.382 -0.099,-0.38 -0.18,-0.069 -0.18,0.691 m 0.403,5.726 c 0.004,0.869 0.085,1.178 0.179,0.686 0.095,-0.491 0.091,-1.202 -0.008,-1.579 -0.099,-0.378 -0.176,0.024 -0.171,0.893 m 0.393,108.268 -0.098,101.161 -1.481,0.155 -1.481,0.155 1.494,0.066 c 0.885,0.04 1.569,-0.134 1.68,-0.427 0.103,-0.271 0.142,-45.893 0.086,-101.382 l -0.102,-100.888 -0.098,101.16 M 5.241,197.828 c 0,0.978 0.077,1.377 0.171,0.889 0.094,-0.489 0.094,-1.289 0,-1.777 -0.094,-0.489 -0.171,-0.089 -0.171,0.888 m 9.615,60.233 c 0.357,1.077 0.805,2.13 0.996,2.338 0.19,0.209 0.054,-0.502 -0.303,-1.579 -0.357,-1.078 -0.805,-2.13 -0.996,-2.339 -0.191,-0.209 -0.055,0.502 0.303,1.58 m 1.579,4.738 c 0.357,1.078 0.805,2.13 0.996,2.339 0.191,0.209 0.055,-0.502 -0.302,-1.58 -0.357,-1.077 -0.806,-2.13 -0.996,-2.338 -0.191,-0.209 -0.055,0.502 0.302,1.579 m 1.179,3.571 c -0.318,0.829 -0.32,0.823 0.298,0.823 0.328,0 0.464,-0.283 0.349,-0.724 -0.232,-0.886 -0.339,-0.902 -0.647,-0.099 m 18.056,35.452 c 0,0.296 0.334,0.747 0.743,1.002 0.713,0.446 0.716,0.424 0.086,-0.538 -0.757,-1.156 -0.829,-1.196 -0.829,-0.464 m 4.212,6.174 c 0.463,0.652 0.932,1.185 1.04,1.185 0.109,0 -0.182,-0.533 -0.646,-1.185 -0.464,-0.651 -0.932,-1.185 -1.041,-1.185 -0.108,0 0.183,0.534 0.647,1.185 m 1.283,2.006 c 0.38,0.221 0.691,0.641 0.691,0.933 0,0.292 0.278,0.637 0.617,0.767 0.465,0.178 0.409,-0.055 -0.224,-0.945 -0.463,-0.65 -1.052,-1.176 -1.308,-1.169 -0.257,0.006 -0.156,0.193 0.224,0.414 m 4.148,5.759 c 0.273,0.11 0.408,0.342 0.301,0.516 -0.108,0.174 0.055,0.524 0.361,0.778 0.431,0.358 0.538,0.346 0.478,-0.054 -0.126,-0.832 -0.659,-1.505 -1.165,-1.471 -0.337,0.022 -0.33,0.088 0.025,0.231 m 11.943,13.681 c 0,0.068 0.577,0.646 1.283,1.284 l 1.283,1.159 -1.159,-1.283 c -1.082,-1.196 -1.407,-1.465 -1.407,-1.16 m 6.881,7.719 c 0.636,0.677 1.239,1.149 1.34,1.048 0.267,-0.268 -0.72,-1.363 -1.674,-1.855 -0.623,-0.322 -0.542,-0.127 0.334,0.807 m 2.544,1.77 c 0.242,0.291 0.308,0.675 0.147,0.853 -0.161,0.177 -0.091,0.207 0.156,0.066 0.458,-0.261 1.48,0.636 1.127,0.989 -0.107,0.107 0.079,0.194 0.412,0.194 0.411,0 0.195,-0.424 -0.67,-1.316 -1.26,-1.301 -2.024,-1.813 -1.172,-0.786 m 57.308,37.704 c 10e-4,0.146 1.711,0.918 3.8,1.715 2.089,0.798 3.643,1.302 3.454,1.12 -0.529,-0.507 -7.255,-3.136 -7.254,-2.835"
       inkscape:connector-curvature="0"
       style="fill:#f06c6c;fill-rule:evenodd;stroke:none" />
    <path
       id="path4"
       d="m 150.148,9.919 c -0.706,0.203 -1.283,0.457 -1.283,0.564 0,0.286 2.11,-0.262 2.547,-0.662 0.43,-0.395 0.444,-0.396 -1.264,0.098 m -3.928,1.091 c -1.129,0.365 -2.179,0.79 -2.334,0.945 -0.414,0.414 3.925,-0.907 4.367,-1.329 0.447,-0.428 0.536,-0.445 -2.033,0.384 M 96.15,33.564 c -1.303,0.867 -2.233,1.577 -2.067,1.578 0.338,10e-4 4.634,-2.795 4.634,-3.016 0,-0.253 -0.166,-0.16 -2.567,1.438 m 243.347,29.057 c 0.463,0.671 1.145,1.471 1.517,1.777 1.155,0.953 0.021,-0.848 -1.265,-2.009 l -1.094,-0.987 0.842,1.219 M 57.292,65.307 c -0.291,0.35 -0.396,0.636 -0.234,0.636 0.162,0 0.061,0.311 -0.224,0.691 -0.299,0.397 -0.131,0.33 0.393,-0.157 0.501,-0.466 0.84,-1.063 0.752,-1.326 -0.113,-0.339 -0.315,-0.293 -0.687,0.156 m 44.978,36.766 c -0.959,0.977 -1.655,1.777 -1.546,1.777 0.109,0 0.982,-0.8 1.941,-1.777 0.959,-0.977 1.655,-1.777 1.547,-1.777 -0.109,0 -0.982,0.8 -1.942,1.777 m 212.894,15.992 c 0,0.326 0.239,1.214 0.532,1.974 0.293,0.761 0.532,1.116 0.532,0.79 0,-0.326 -0.239,-1.214 -0.532,-1.974 -0.293,-0.76 -0.532,-1.116 -0.532,-0.79 m 2,7.503 c -0.004,0.543 0.135,1.431 0.309,1.974 0.425,1.327 0.425,-0.107 0,-1.777 -0.271,-1.064 -0.302,-1.084 -0.309,-0.197 m 0.608,6.018 c 0.207,3.35 0.423,3.774 0.453,0.892 0.014,-1.303 -0.117,-2.593 -0.29,-2.866 -0.174,-0.274 -0.247,0.615 -0.163,1.974 m -195.166,13.725 c 2.382,2.389 4.419,4.343 4.528,4.343 0.108,0 -1.751,-1.954 -4.133,-4.343 -2.382,-2.389 -4.419,-4.344 -4.528,-4.344 -0.108,0 1.752,1.955 4.133,4.344 m 11.643,11.945 c 4.947,5.043 5.534,5.608 5.534,5.325 0,-0.057 -2.443,-2.501 -5.43,-5.43 l -5.429,-5.325 5.325,5.43 m 12.436,47.877 c 0,19.546 0.048,27.484 0.107,17.641 0.058,-9.844 0.058,-25.836 0,-35.538 -0.059,-9.703 -0.107,-1.649 -0.107,17.897 m 246.997,-26.479 c 0,0.53 0.146,1.054 0.324,1.164 0.177,0.11 0.246,-0.324 0.152,-0.964 -0.207,-1.411 -0.476,-1.524 -0.476,-0.2 m -381.83,68.763 c 0.003,0.416 0.186,1.023 0.407,1.349 0.293,0.433 0.329,0.273 0.136,-0.592 -0.325,-1.452 -0.551,-1.767 -0.543,-0.757 m 0.839,2.929 c 0,0.325 0.153,0.947 0.34,1.382 0.214,0.497 0.339,0.57 0.339,0.197 0,-0.326 -0.153,-0.948 -0.339,-1.382 -0.214,-0.498 -0.34,-0.571 -0.34,-0.197 m 305.172,15.678 c -0.106,1.564 -0.05,2.701 0.124,2.526 0.174,-0.175 0.261,-1.455 0.193,-2.845 l -0.124,-2.526 -0.193,2.845 m -1.322,8.863 c -0.404,1.813 -1.151,4.445 -1.66,5.849 -0.509,1.403 -0.862,2.615 -0.785,2.692 0.447,0.447 3.534,-10.089 3.298,-11.253 -0.065,-0.322 -0.449,0.898 -0.853,2.712 m -30.263,36.465 c -0.543,0.311 -0.809,0.565 -0.592,0.565 0.217,0 0.839,-0.254 1.382,-0.565 0.543,-0.31 0.81,-0.564 0.592,-0.564 -0.217,0 -0.839,0.254 -1.382,0.564 m -9.674,2.98 c -0.55,0.25 -0.311,0.285 0.79,0.118 0.869,-0.133 1.653,-0.306 1.744,-0.386 0.339,-0.299 -1.776,-0.075 -2.534,0.268 m -3.909,0.418 c -1.281,0.187 -2.427,0.438 -2.546,0.557 -0.333,0.332 4.399,-0.263 5.073,-0.639 0.679,-0.378 0.614,-0.376 -2.527,0.082 M 60.067,332.28 c 0.352,0.435 0.737,1.057 0.857,1.382 0.185,0.503 0.223,0.497 0.249,-0.037 0.017,-0.347 -0.368,-0.968 -0.857,-1.382 -0.881,-0.746 -0.883,-0.746 -0.249,0.037 m 58.119,3.583 -1.108,1.016 1.283,-0.893 c 0.706,-0.491 1.284,-0.948 1.284,-1.016 0,-0.312 -0.437,-0.044 -1.459,0.893 M 90.69,358.176 c 0.49,0.593 2.893,2.105 2.893,1.82 0,-0.092 -0.755,-0.666 -1.678,-1.274 -0.923,-0.609 -1.47,-0.855 -1.215,-0.546 m 47.747,23.629 c 0.466,0.43 3.324,1.344 3.537,1.131 0.09,-0.09 -0.75,-0.456 -1.866,-0.813 -1.117,-0.357 -1.869,-0.5 -1.671,-0.318 m 4.505,1.593 c 0.326,0.22 0.933,0.403 1.349,0.406 1.01,0.008 0.695,-0.218 -0.757,-0.542 -0.865,-0.194 -1.025,-0.157 -0.592,0.136"
       inkscape:connector-curvature="0"
       style="fill:#ed6364;fill-rule:evenodd;stroke:none" />
  </g>
  <path
     style="opacity:0.98999999;fill:#ffffff;fill-opacity:1;stroke:none;stroke-width:0.72899997"
     d="m 90.448409,239.37614 0.01634,-115.08763 3.900571,-8.37614 c 4.26578,-9.16039 12.33892,-17.123444 23.29614,-22.978457 6.98596,-3.732964 7.87987,-3.779321 82.10313,-4.257813 84.26174,-0.543208 86.09035,-0.344341 100.14621,10.891121 4.84414,3.872129 9.70414,9.884569 12.54594,15.520929 l 4.63876,9.20036 0.38305,62.72973 c 0.42031,68.82929 -0.83574,89.81857 -5.9704,99.76963 -3.8553,7.47168 -13.2664,16.73966 -22.85013,22.50263 l -6.69117,4.0236 -67.40415,0.48973 -67.40415,0.48973 -13.22226,9.54703 c -22.49054,16.23912 -38.899043,27.88774 -41.252145,29.28546 -1.87878,1.11599 -2.24937,-17.73891 -2.235738,-113.74991 z m 161.803071,15.23337 c 9.25338,-5.93463 9.62491,-7.97576 9.8532,-54.13377 0.23469,-47.45404 -0.41798,-51.22981 -9.84963,-56.98044 -5.14742,-3.13847 -8.64796,-3.30306 -70.37692,-3.30901 l -64.96007,-0.006 14.35809,15.38712 14.35808,15.38711 0.009,33.54208 c 0.0144,51.7125 -0.0814,51.56018 33.19638,52.77919 36.21663,1.32666 69.04496,0.13449 73.41154,-2.66603 z"
     id="path820"
     inkscape:connector-curvature="0" />
</svg>
